<svg width="1101" height="481" viewBox="0 0 1101 481" fill="none" xmlns="http://www.w3.org/2000/svg">
<path d="M523.1 225.9V260.1H486.2V230.1C486.2 222.3 483.8 216.6 479 213C474.4 209.2 468.5 207.3 461.3 207.3C456.1 207.3 451.3 208.1 446.9 209.7C442.7 211.1 439.1 212.8 436.1 214.8V260.1H399.2V212.4C399.2 207.6 400.2 203.7 402.2 200.7C404.2 197.5 407.2 194.6 411.2 192C417.4 187.8 425 184.4 434 181.8C443.2 179.2 452.7 177.9 462.5 177.9C472.3 177.9 481.3 179.4 489.5 182.4C497.7 185.4 504.4 189.8 509.6 195.6C511 196.8 512.3 198 513.5 199.2C514.7 200.4 515.7 201.8 516.5 203.4C518.3 206.4 519.8 209.9 521 213.9C522.4 217.7 523.1 221.7 523.1 225.9ZM609.8 228.9V260.1H572.9V230.1C572.9 222.3 570.7 216.6 566.3 213C561.9 209.2 556 207.3 548.6 207.3C543.2 207.3 537.9 208.4 532.7 210.6C527.7 212.8 523.4 215.7 519.8 219.3L501.2 196.8C507.4 191.6 514.7 187.2 523.1 183.6C531.5 179.8 541.5 177.9 553.1 177.9C563.7 177.9 573.3 179.6 581.9 183C590.5 186.4 597.3 191.9 602.3 199.5C607.3 207.1 609.8 216.9 609.8 228.9ZM399.2 245.7H436.1V323.4C434.5 324 432.2 324.5 429.2 324.9C426.2 325.5 422.9 325.8 419.3 325.8C412.5 325.8 407.4 324.6 404 322.2C400.8 319.6 399.2 315.1 399.2 308.7V245.7ZM486.2 245.7H523.1V323.4C521.5 324 519.1 324.5 515.9 324.9C512.9 325.5 509.7 325.8 506.3 325.8C499.3 325.8 494.2 324.6 491 322.2C487.8 319.6 486.2 315.1 486.2 308.7V245.7ZM572.9 245.7H609.8V323.4C608.4 324 606.1 324.5 602.9 324.9C599.9 325.5 596.7 325.8 593.3 325.8C586.3 325.8 581.1 324.6 577.7 322.2C574.5 319.6 572.9 315.1 572.9 308.7V245.7ZM664.716 271.8L663.216 246L743.616 234C743.016 226.4 740.116 219.8 734.916 214.2C729.716 208.6 722.116 205.8 712.116 205.8C701.916 205.8 693.416 209.4 686.616 216.6C679.816 223.6 676.316 233.7 676.116 246.9L677.016 262.5C678.816 275.3 683.716 284.7 691.716 290.7C699.916 296.7 710.216 299.7 722.616 299.7C731.016 299.7 738.816 298.5 746.016 296.1C753.216 293.5 758.916 290.7 763.116 287.7C765.916 289.5 768.116 291.8 769.716 294.6C771.516 297.2 772.416 300.1 772.416 303.3C772.416 308.5 770.116 313 765.516 316.8C760.916 320.4 754.716 323.2 746.916 325.2C739.116 327.2 730.216 328.2 720.216 328.2C704.816 328.2 691.116 325.4 679.116 319.8C667.316 314 658.016 305.4 651.216 294C644.616 282.6 641.316 268.4 641.316 251.4C641.316 239.2 643.216 228.5 647.016 219.3C650.816 210.1 655.916 202.5 662.316 196.5C668.916 190.3 676.516 185.7 685.116 182.7C693.716 179.5 702.716 177.9 712.116 177.9C725.316 177.9 736.816 180.6 746.616 186C756.616 191.2 764.416 198.5 770.016 207.9C775.816 217.3 778.716 228.1 778.716 240.3C778.716 245.9 777.216 250.1 774.216 252.9C771.416 255.5 767.416 257.1 762.216 257.7L664.716 271.8ZM919.156 283.8C919.156 297.8 913.956 308.8 903.556 316.8C893.156 324.6 878.056 328.5 858.256 328.5C842.256 328.5 829.156 326.1 818.956 321.3C808.756 316.5 803.656 310.1 803.656 302.1C803.656 298.7 804.456 295.6 806.056 292.8C807.656 289.8 809.756 287.5 812.356 285.9C817.956 289.5 824.456 292.7 831.856 295.5C839.256 298.3 847.656 299.7 857.056 299.7C874.056 299.7 882.556 294.5 882.556 284.1C882.556 279.7 881.056 276.2 878.056 273.6C875.056 270.8 870.456 268.8 864.256 267.6L847.156 263.1C832.556 259.9 821.656 254.9 814.456 248.1C807.456 241.3 803.956 232.2 803.956 220.8C803.956 208.2 809.156 197.9 819.556 189.9C829.956 181.7 844.356 177.6 862.756 177.6C872.356 177.6 880.956 178.6 888.556 180.6C896.156 182.4 902.056 185.1 906.256 188.7C910.656 192.3 912.856 196.6 912.856 201.6C912.856 205 912.056 208.1 910.456 210.9C909.056 213.5 907.156 215.5 904.756 216.9C902.356 215.5 899.056 214 894.856 212.4C890.856 210.6 886.256 209.2 881.056 208.2C875.856 207 870.656 206.4 865.456 206.4C857.656 206.4 851.456 207.7 846.856 210.3C842.456 212.7 840.256 216.2 840.256 220.8C840.256 224.2 841.556 227.1 844.156 229.5C846.756 231.9 851.156 233.8 857.356 235.2L872.656 238.8C888.856 242.6 900.656 248.2 908.056 255.6C915.456 262.8 919.156 272.2 919.156 283.8ZM1081.68 263.4H1044.78V236.4C1044.78 226.2 1041.98 218.8 1036.38 214.2C1030.98 209.6 1024.08 207.3 1015.68 207.3C1008.88 207.3 1002.58 208.6 996.781 211.2C991.181 213.8 986.281 216.8 982.081 220.2L979.981 190.2C984.581 187.4 990.481 184.7 997.681 182.1C1004.88 179.3 1012.98 177.9 1021.98 177.9C1039.98 177.9 1054.38 182.6 1065.18 192C1076.18 201.4 1081.68 215.6 1081.68 234.6V263.4ZM950.581 244.8H987.481V323.4C985.881 324 983.581 324.5 980.581 324.9C977.581 325.5 974.281 325.8 970.681 325.8C963.881 325.8 958.781 324.6 955.381 322.2C952.181 319.6 950.581 315.1 950.581 308.7V244.8ZM1044.78 245.1H1081.68V323.4C1080.08 324 1077.68 324.5 1074.48 324.9C1071.48 325.5 1068.28 325.8 1064.88 325.8C1057.88 325.8 1052.78 324.6 1049.58 322.2C1046.38 319.6 1044.78 315.1 1044.78 308.7V245.1ZM987.481 263.7H950.581V129C952.181 128.6 954.481 128.1 957.481 127.5C960.481 126.9 963.781 126.6 967.381 126.6C974.381 126.6 979.481 127.9 982.681 130.5C985.881 132.9 987.481 137.3 987.481 143.7V263.7Z" fill="white"/>
<rect x="21.6411" y="178.387" width="20.7307" height="165.647" rx="10.3653" transform="rotate(-35.5729 21.6411 178.387)" fill="white"/>
<rect x="111" y="303.408" width="20.7307" height="139.948" rx="10.3653" transform="rotate(-69.4271 111 303.408)" fill="white"/>
<rect x="233.777" y="187.365" width="20.7307" height="165.647" rx="10.3653" transform="rotate(51.1097 233.777 187.365)" fill="white"/>
<circle cx="247" cy="340" r="36" fill="white"/>
<ellipse cx="235" cy="197.5" rx="36" ry="35.5" fill="white"/>
<circle cx="36" cy="183" r="36" fill="white"/>
<ellipse cx="121" cy="290.5" rx="46" ry="46.5" fill="white"/>
</svg>
